Coordinates
version=1
nRows=16
nColumns=36
inDegrees=yes

Units are S.I. units (second, meters, Newtons, ...)
If the header above contains a line with 'inDegrees', this indicates whether rotational values are in degrees (yes) or radians (no).

endheader
time	pelvis_tilt	pelvis_list	pelvis_rotation	pelvis_tx	pelvis_ty	pelvis_tz	hip_flexion_r	hip_adduction_r	hip_rotation_r	knee_angle_r	knee_angle_r_beta	ankle_angle_r	subtalar_angle_r	mtp_angle_r	hip_flexion_l	hip_adduction_l	hip_rotation_l	knee_angle_l	knee_angle_l_beta	ankle_angle_l	subtalar_angle_l	mtp_angle_l	lumbar_extension	lumbar_bending	lumbar_rotation	arm_flex_r	arm_add_r	arm_rot_r	elbow_flex_r	pro_sup_r	arm_flex_l	arm_add_l	arm_rot_l	elbow_flex_l	pro_sup_l
      1.50000000	      3.85864532	     -1.23638893	      4.05676834	     -0.03295997	      1.24287490	      0.13086756	     -0.39678913	      0.17889980	      1.49937827	      4.45637591	      0.07777843	     14.03968756	     -8.74671475	     -7.49999987	     -2.22905550	     -3.82473060	    -12.17031443	      2.74194023	      0.04785588	     14.32195087	      4.50447963	     -7.49999987	      0.64814246	      4.02032605	      4.29158121	     -0.36208794	     -3.98924607	     -0.96531811	     21.60321029	     90.82259681	     -8.15819513	     -8.73897980	      4.56580598	     86.48335644	     95.35673402
      1.51666670	      3.78862197	     -1.24207727	      4.07605095	     -0.03368896	      1.24207537	      0.13053352	     -0.27792934	      0.15495108	      1.41662273	      4.60569462	      0.08038454	     14.21423817	     -8.64134232	     -7.49999987	     -2.11200584	     -3.80447393	    -11.91789003	      2.83615100	      0.04950017	     14.41423370	      4.25915760	     -7.49999987	      0.81567906	      4.02413493	      4.07881442	     -0.24570049	     -4.01756182	     -1.39320246	     21.41304943	     94.40981598	     -8.17432190	     -8.67900822	      4.20304230	     86.39780936	     99.85719663
      1.53333330	      3.76738434	     -1.20012376	      4.04633026	     -0.03460010	      1.25400646	      0.13120754	     -0.28209212	      0.07507483	      1.36687280	      4.67019919	      0.08151035	     14.01022335	     -8.59842076	     -7.49999987	     -2.12599448	     -3.74013555	    -12.01649500	      2.77550147	      0.04844164	     14.17114372	      4.31552612	     -7.49999987	      0.71390667	      3.94961741	      3.96220879	     -0.10283257	     -3.96261037	     -1.42349639	     21.40845885	     94.42826783	     -8.00945712	     -8.65091439	      4.18622024	     86.06233912	     99.83983909
      1.55000000	      3.77946005	     -1.20635244	      4.05712531	     -0.03590054	      1.24365300	      0.13124093	     -0.25745768	      0.07106971	      1.36710783	      4.66447708	      0.08141048	     14.01076106	     -8.59891546	     -7.49999987	     -2.15177829	     -3.73560552	    -12.02282437	      2.77948584	      0.04851118	     14.17615060	      4.30973459	     -7.49999987	      0.71414422	      3.94712119	      3.96136955	     -0.10230634	     -3.96429875	     -1.42405008	     21.40865834	     94.42821181	     -8.00698791	     -8.65215259	      4.18541981	     86.05986278	     99.83933960
      1.56666670	      4.12413675	     -1.10601919	      3.94173788	     -0.03557158	      1.24195343	      0.13145001	     -0.49541179	     -0.01175637	      1.40916750	      4.89145473	      0.08537199	     14.04849564	     -8.67955091	     -7.49999987	     -2.44764864	     -3.66393839	    -12.29886305	      2.87320779	      0.05014694	     14.44989940	      4.11870591	     -7.49999987	      0.15818794	      3.84202850	      4.08571107	      0.34609993	     -4.15536033	     -0.16082449	     21.04409333	     92.78565913	     -7.48548812	     -8.71112452	      4.31292407	     85.63571205	     97.96675763
      1.58333330	      4.20869042	     -1.07947575	      3.88759559	     -0.03513582	      1.24173058	      0.13174658	     -0.46219239	     -0.04540230	      1.50304033	      5.16280285	      0.09010791	     14.04354288	     -8.93142829	     -7.49999987	     -2.47939945	     -3.66127999	    -12.25963162	      2.95651136	      0.05160086	     14.59095955	      3.99257028	     -7.49999987	     -0.07223299	      3.74757934	      4.29243360	      0.30944397	     -4.02032164	     -1.73312925	     21.47104871	     94.32969648	     -7.20999696	     -8.73734826	      4.36042794	     85.73257105	     99.76978989
      1.60000000	      4.23244445	     -1.05118466	      3.83855868	     -0.03636811	      1.25397476	      0.13194601	     -0.39871338	     -0.09320059	      1.41408610	      5.43941636	      0.09493572	     13.93238950	     -8.98253207	     -7.49999987	     -2.48490902	     -3.65409931	    -12.27024679	      3.01265531	      0.05258075	     14.52687640	      4.02249323	     -7.49999987	     -0.33395643	      3.65365371	      4.28225998	      0.56594915	     -4.00879447	     -1.74126283	     21.52020789	     94.35379471	     -7.03106302	     -8.65941888	      4.31707269	     85.45304049	     99.74793853
      1.61666670	      4.39195570	     -1.06764278	      3.75827988	     -0.03480529	      1.24433004	      0.13132920	     -0.45621193	     -0.08273164	      1.50315348	      5.73429397	      0.10008231	     14.19507792	     -9.18231834	     -7.49999987	     -2.57549599	     -3.68964329	    -12.17570021	      3.21684757	      0.05614458	     14.91349257	      3.91987592	     -7.49999987	     -0.64115721	      3.53834752	      4.34938322	      0.76037993	     -4.06449349	     -1.73740545	     21.60170996	     94.39441423	     -6.71369497	     -8.65502308	      4.22408555	     85.29081720	     99.71079393
      1.63333330	      4.61951768	     -1.01084413	      3.69501250	     -0.03638193	      1.24461285	      0.13140677	     -0.54962759	     -0.13791830	      1.58454089	      6.01455717	      0.10497383	     14.25833095	     -9.44398996	     -7.49999987	     -2.75928100	     -3.64177884	    -11.99781112	      3.38681367	      0.05911105	     15.06046833	      3.68483156	     -7.49999987	     -1.13012317	      3.45618101	      4.56872945	      0.89437308	     -4.10628233	     -1.66915689	     21.80896985	     92.76953391	     -6.01687602	     -8.71317926	      4.53677780	     85.11446611	     97.68648634
      1.65000000	      4.64964981	     -0.98960241	      3.59643652	     -0.03822455	      1.25536736	      0.13275505	     -0.40075981	     -0.15415039	      1.61744522	      6.34285539	      0.11070371	     14.31835409	     -9.45546484	     -7.49999987	     -2.68608084	     -3.67491418	    -12.00025281	      3.64944374	      0.06369481	     15.13437456	      3.68097776	     -7.49999987	     -1.53034361	      3.37411065	      4.61020241	      1.26739938	     -4.11394829	     -1.60628617	     22.05427027	     92.88089941	     -5.79746535	     -8.69058373	      4.39891015	     84.77665070	     97.73581809
      1.66666670	      4.82021533	     -0.98504878	      3.53480807	     -0.03793252	      1.25518143	      0.13278434	     -0.42745965	     -0.14665862	      1.64156634	      6.64907086	      0.11604818	     14.27371349	     -9.59628302	     -7.49999987	     -2.75558942	     -3.69828603	    -11.76153340	      3.90682259	      0.06818692	     15.25189648	      3.38711930	     -7.49999987	     -2.08695540	      3.33350004	      4.87967424	      1.51101558	     -4.17443609	     -1.42780682	     22.35993131	     91.97081465	     -5.38757859	     -8.61018051	      4.46600858	     84.29485434	     96.65974929
      1.68333330	      4.91576139	     -0.95446182	      3.45192615	     -0.03940684	      1.24565574	      0.13335408	     -0.19501546	     -0.13299788	      1.68272022	      7.14995045	      0.12479018	     14.39403688	     -9.83863248	     -7.49999987	     -2.57895088	     -3.72702600	    -11.65466437	      4.47191852	      0.07804970	     15.72186622	      3.11553279	     -7.49999987	     -2.62198296	      3.18881614	      5.13732731	      1.87105224	     -4.24601693	     -1.30588356	     22.77825610	     92.14959752	     -5.18728444	     -8.65515178	      4.36715188	     84.69373217	     96.77310676
      1.70000000	      4.94299111	     -0.88493793	      3.38138592	     -0.04015659	      1.24407597	      0.13359447	      0.15860011	     -0.15121944	      1.81918275	      7.79227358	      0.13600083	     14.42966269	    -10.32910249	     -7.49999987	     -2.22966426	     -3.73995872	    -11.31488884	      5.20548840	      0.09085291	     15.98851418	      2.43281312	     -7.49999987	     -3.14236028	      2.99985176	      5.49403379	      2.17704351	     -4.34109021	     -1.08384857	     23.49809656	     90.81257851	     -4.92216828	     -8.80974127	      4.50415165	     85.35124424	     95.38280099
      1.71666670	      5.00371121	     -0.79513935	      3.33036836	     -0.04251674	      1.24521574	      0.13414680	      0.56781110	     -0.20378586	      1.78777978	      8.58148053	      0.14977509	     14.73684740	    -10.50651492	     -7.49999987	     -1.78732809	     -3.74027031	    -10.83791019	      6.11020645	      0.10664322	     16.26329290	      1.61508464	     -7.49999987	     -3.91948343	      2.75717423	      5.70137289	      2.74588176	     -4.51441720	     -0.02955464	     24.45217923	     89.28924387	     -4.73977702	     -8.86260627	      4.16565801	     86.24485348	     93.44496581
      1.73333330	      4.53530455	     -0.81369802	      3.32108503	     -0.04204152	      1.24194945	      0.13564786	      1.59267438	     -0.11120280	      2.04066900	      9.50488476	      0.16589153	     15.04095091	    -11.17071528	     -7.49999987	     -0.59488197	     -3.90246556	    -10.30015622	      7.45896787	      0.13018355	     16.77527056	      0.88320937	     -7.49999987	     -3.91204654	      2.60933280	      5.64215547	      3.43339373	     -4.63608374	      0.70286313	     25.17957279	     93.26977873	     -4.87486708	     -8.96405835	      3.37607031	     87.03147435	     97.54807101
      1.75000000	      4.11088250	     -0.76224723	      3.33387925	     -0.04387155	      1.23641510	      0.13578102	      2.76410599	     -0.12955737	      2.10180789	     10.79879363	      0.18847450	     15.62104213	    -11.77095643	     -7.49999987	      0.82875996	     -3.96352713	     -9.54574094	      9.22822991	      0.16106300	     17.25652524	     -0.52873176	     -7.49999987	     -4.10478545	      2.36336169	      6.15449970	      3.80597330	     -4.69670440	      0.47399916	     26.32173811	     92.18444242	     -4.43619000	     -9.30122465	      3.64627261	     88.00506059	     96.27256415
